<svg width="22" height="28" viewBox="0 0 22 28" fill="none" xmlns="http://www.w3.org/2000/svg">
<path d="M20.6147 6.04945L12.5103 0.670637C11.5381 0.0254779 10.3364 0.0254779 9.36426 0.670637L1.26025 6.04945C1.00049 6.22167 1.00195 6.65035 1.26318 6.82044L10.9375 13.1195L20.6123 6.82044C20.8735 6.65035 20.875 6.2222 20.6147 6.04945V6.04945ZM21.2905 8.42907L11.7188 14.661V26.5948C11.7188 27.2816 12.3726 27.7097 12.8931 27.3642L20.3228 22.4333C21.2837 21.7956 21.875 20.6236 21.875 19.3568V8.81563C21.875 8.47386 21.5508 8.25951 21.2905 8.42907V8.42907ZM0 8.81563V19.3568C0 20.6242 0.591309 21.7956 1.55225 22.4333L8.98193 27.3637C9.50293 27.7092 10.1562 27.2816 10.1562 26.5943V14.661L0.584473 8.42907C0.324219 8.25951 0 8.47386 0 8.81563Z" fill="white"/>
</svg>
