<svg width="23" height="23" viewBox="0 0 23 23" fill="none" xmlns="http://www.w3.org/2000/svg">
<path d="M10.2143 3.93604H3.21426C2.68383 3.93604 2.17512 4.14675 1.80005 4.52182C1.42498 4.89689 1.21426 5.4056 1.21426 5.93604V19.936C1.21426 20.4665 1.42498 20.9752 1.80005 21.3502C2.17512 21.7253 2.68383 21.936 3.21426 21.936H17.2143C17.7447 21.936 18.2534 21.7253 18.6285 21.3502C19.0035 20.9752 19.2143 20.4665 19.2143 19.936V12.936" stroke="#0093E9" stroke-width="2" stroke-linecap="round" stroke-linejoin="round"/>
<path d="M17.7143 2.43602C18.1121 2.03819 18.6517 1.8147 19.2143 1.8147C19.7769 1.8147 20.3164 2.03819 20.7143 2.43602C21.1121 2.83384 21.3356 3.37341 21.3356 3.93602C21.3356 4.49863 21.1121 5.03819 20.7143 5.43602L11.2143 14.936L7.21426 15.936L8.21426 11.936L17.7143 2.43602Z" stroke="#0093E9" stroke-width="2" stroke-linecap="round" stroke-linejoin="round"/>
</svg>
