<svg width="98" height="27" viewBox="0 0 98 27" fill="none" xmlns="http://www.w3.org/2000/svg">
<path d="M5.524 21.8839H13.804V25.8799H0.484V0.751882H5.524V21.8839ZM28.6714 26.1319C26.3194 26.1319 24.1594 25.5799 22.1914 24.4759C20.2234 23.3719 18.6634 21.8479 17.5114 19.9039C16.3594 17.9359 15.7834 15.7159 15.7834 13.2439C15.7834 10.7959 16.3594 8.59988 17.5114 6.65588C18.6634 4.68788 20.2234 3.15188 22.1914 2.04788C24.1594 0.943882 26.3194 0.391883 28.6714 0.391883C31.0474 0.391883 33.2074 0.943882 35.1514 2.04788C37.1194 3.15188 38.6674 4.68788 39.7954 6.65588C40.9474 8.59988 41.5234 10.7959 41.5234 13.2439C41.5234 15.7159 40.9474 17.9359 39.7954 19.9039C38.6674 21.8479 37.1194 23.3719 35.1514 24.4759C33.1834 25.5799 31.0234 26.1319 28.6714 26.1319ZM28.6714 21.6319C30.1834 21.6319 31.5154 21.2959 32.6674 20.6239C33.8194 19.9279 34.7194 18.9439 35.3674 17.6719C36.0154 16.3999 36.3394 14.9239 36.3394 13.2439C36.3394 11.5639 36.0154 10.0999 35.3674 8.85188C34.7194 7.57988 33.8194 6.60788 32.6674 5.93588C31.5154 5.26388 30.1834 4.92788 28.6714 4.92788C27.1594 4.92788 25.8154 5.26388 24.6394 5.93588C23.4874 6.60788 22.5874 7.57988 21.9394 8.85188C21.2914 10.0999 20.9674 11.5639 20.9674 13.2439C20.9674 14.9239 21.2914 16.3999 21.9394 17.6719C22.5874 18.9439 23.4874 19.9279 24.6394 20.6239C25.8154 21.2959 27.1594 21.6319 28.6714 21.6319ZM62.7691 8.31188C62.1931 7.25588 61.4011 6.45188 60.3931 5.89988C59.3851 5.34788 58.2091 5.07188 56.8651 5.07188C55.3771 5.07188 54.0571 5.40788 52.9051 6.07988C51.7531 6.75188 50.8531 7.71188 50.2051 8.95988C49.5571 10.2079 49.2331 11.6479 49.2331 13.2799C49.2331 14.9599 49.5571 16.4239 50.2051 17.6719C50.8771 18.9199 51.8011 19.8799 52.9771 20.5519C54.1531 21.2239 55.5211 21.5599 57.0811 21.5599C59.0011 21.5599 60.5731 21.0559 61.7971 20.0479C63.0211 19.0159 63.8251 17.5879 64.2091 15.7639H55.5691V11.9119H69.1771V16.3039C68.8411 18.0559 68.1211 19.6759 67.0171 21.1639C65.9131 22.6519 64.4851 23.8519 62.7331 24.7639C61.0051 25.6519 59.0611 26.0959 56.9011 26.0959C54.4771 26.0959 52.2811 25.5559 50.3131 24.4759C48.3691 23.3719 46.8331 21.8479 45.7051 19.9039C44.6011 17.9599 44.0491 15.7519 44.0491 13.2799C44.0491 10.8079 44.6011 8.59988 45.7051 6.65588C46.8331 4.68788 48.3691 3.16388 50.3131 2.08388C52.2811 0.979882 54.4651 0.427882 56.8651 0.427882C59.6971 0.427882 62.1571 1.12388 64.2451 2.51588C66.3331 3.88388 67.7731 5.81588 68.5651 8.31188H62.7691ZM84.5699 26.1319C82.2179 26.1319 80.0579 25.5799 78.0899 24.4759C76.1219 23.3719 74.5619 21.8479 73.4099 19.9039C72.2579 17.9359 71.6819 15.7159 71.6819 13.2439C71.6819 10.7959 72.2579 8.59988 73.4099 6.65588C74.5619 4.68788 76.1219 3.15188 78.0899 2.04788C80.0579 0.943882 82.2179 0.391883 84.5699 0.391883C86.9459 0.391883 89.1059 0.943882 91.0499 2.04788C93.0179 3.15188 94.5659 4.68788 95.6939 6.65588C96.8459 8.59988 97.4219 10.7959 97.4219 13.2439C97.4219 15.7159 96.8459 17.9359 95.6939 19.9039C94.5659 21.8479 93.0179 23.3719 91.0499 24.4759C89.0819 25.5799 86.9219 26.1319 84.5699 26.1319ZM84.5699 21.6319C86.0819 21.6319 87.4139 21.2959 88.5659 20.6239C89.7179 19.9279 90.6179 18.9439 91.2659 17.6719C91.9139 16.3999 92.2379 14.9239 92.2379 13.2439C92.2379 11.5639 91.9139 10.0999 91.2659 8.85188C90.6179 7.57988 89.7179 6.60788 88.5659 5.93588C87.4139 5.26388 86.0819 4.92788 84.5699 4.92788C83.0579 4.92788 81.7139 5.26388 80.5379 5.93588C79.3859 6.60788 78.4859 7.57988 77.8379 8.85188C77.1899 10.0999 76.8659 11.5639 76.8659 13.2439C76.8659 14.9239 77.1899 16.3999 77.8379 17.6719C78.4859 18.9439 79.3859 19.9279 80.5379 20.6239C81.7139 21.2959 83.0579 21.6319 84.5699 21.6319Z" fill="white"/>
</svg>
